<?xml version="1.0" encoding="utf-8"?>
<!-- Generator: Adobe Illustrator 16.0.0, SVG Export Plug-In . SVG Version: 6.00 Build 0)  -->
<!DOCTYPE svg PUBLIC "-//W3C//DTD SVG 1.1//EN" "http://www.w3.org/Graphics/SVG/1.1/DTD/svg11.dtd">
<svg version="1.1" id="Capa_1" xmlns="http://www.w3.org/2000/svg" xmlns:xlink="http://www.w3.org/1999/xlink" x="0px" y="0px"
	 width="210px" height="100px" viewBox="0 0 210 100" enable-background="new 0 0 210 100" xml:space="preserve">
<path d="M130.46,50c0,27.569-22.429,50-50,50c-27.571,0-50-22.431-50-50c0-27.571,22.429-50,50-50
	c11.124,0,21.662,3.58,30.475,10.354L99.326,25.456c-5.455-4.193-11.978-6.41-18.866-6.41c-17.067,0-30.953,13.886-30.953,30.953
	c0,17.066,13.886,30.952,30.953,30.952c13.746,0,25.428-9.008,29.456-21.428H80.459V40.476h50V50z M183.101,56.228h-14.321v14.323
	h-12.456V56.228h-14.314V43.773h14.314V29.449h12.456v14.325h14.321V56.228z"/>
</svg>
