<?xml version="1.0" encoding="iso-8859-1"?>
<!-- Generator: Adobe Illustrator 19.1.0, SVG Export Plug-In . SVG Version: 6.00 Build 0)  -->
<svg version="1.1" id="Capa_1" xmlns="http://www.w3.org/2000/svg" xmlns:xlink="http://www.w3.org/1999/xlink" x="0px" y="0px"
	 viewBox="0 0 194.662 194.662" style="enable-background:new 0 0 194.662 194.662;" xml:space="preserve">
<g>
	<g>
		<g>
			<path d="M156.572,194.662H38.083c-9.56,0-17.336-7.618-17.336-16.981V81.94c0-0.247,0.062-0.486,0.188-0.727
				C21.479,37.168,56.444,0,97.389,0c20.121,0,39.278,8.81,53.94,24.808c14.168,15.458,22.377,36.159,22.532,56.812
				c0.026,0.08,0.053,0.188,0.053,0.32v95.74C173.914,187.044,166.134,194.662,156.572,194.662z M97.389,1.6
				c-19.619,0-38.321,8.589-52.661,24.185C30.821,40.911,22.73,61.2,22.532,81.448c-0.001,0.16-0.051,0.316-0.143,0.448
				l-0.043,95.785c0,8.481,7.06,15.382,15.736,15.382h118.488c8.681,0,15.743-6.9,15.743-15.382V82.028
				c-0.021-0.08-0.046-0.181-0.049-0.227c-0.002-0.02-0.003-0.04-0.003-0.061c-0.125-20.298-8.185-40.655-22.112-55.852
				C135.794,10.226,117.057,1.6,97.389,1.6z M153.256,78.04c-0.024,0-0.049-0.001-0.073-0.003
				c-29.148-2.68-82.336-2.686-111.59-0.013c-0.234,0.021-0.469-0.062-0.637-0.229s-0.253-0.398-0.233-0.634
				c2.619-31.526,28.04-57.175,56.666-57.175c28.635,0,54.054,25.655,56.664,57.189c0.02,0.235-0.065,0.468-0.233,0.634
				C153.669,77.958,153.466,78.04,153.256,78.04z M97.315,74.425c20.243,0,40.482,0.645,55.059,1.933
				c-2.968-30.289-27.449-54.772-54.984-54.772c-27.527,0-52.01,24.478-54.986,54.76C56.975,75.064,77.145,74.425,97.315,74.425z"/>
			<g>
				<path d="M97.679,158.768c-3.741,0-6.785-3.042-6.785-6.781v-15.045c-6.472-2.823-10.623-9.128-10.623-16.214
					c0-9.754,7.935-17.69,17.688-17.69s17.687,7.936,17.687,17.69c0,7.244-4.47,13.779-11.182,16.439v14.82
					C104.463,155.726,101.42,158.768,97.679,158.768z M97.958,104.637c-8.871,0-16.088,7.218-16.088,16.09
					c0,6.61,3.973,12.474,10.121,14.939c0.304,0.122,0.502,0.416,0.502,0.743v15.578c0,2.857,2.326,5.181,5.186,5.181
					c2.858,0,5.185-2.324,5.185-5.181v-15.373c0-0.337,0.212-0.639,0.529-0.753c6.371-2.292,10.652-8.374,10.652-15.134
					C114.045,111.855,106.828,104.637,97.958,104.637z"/>
			</g>
		</g>
	</g>
</g>
<g>
</g>
<g>
</g>
<g>
</g>
<g>
</g>
<g>
</g>
<g>
</g>
<g>
</g>
<g>
</g>
<g>
</g>
<g>
</g>
<g>
</g>
<g>
</g>
<g>
</g>
<g>
</g>
<g>
</g>
</svg>
