<?xml version="1.0" encoding="iso-8859-1"?>
<!-- Generator: Adobe Illustrator 19.1.0, SVG Export Plug-In . SVG Version: 6.00 Build 0)  -->
<svg version="1.1" id="Capa_1" xmlns="http://www.w3.org/2000/svg" xmlns:xlink="http://www.w3.org/1999/xlink" x="0px" y="0px"
	 viewBox="0 0 194.666 194.666" style="enable-background:new 0 0 194.666 194.666;" xml:space="preserve">
<g>
	<g>
		<g>
			<path d="M171.084,194.666H47.724c-6.351,0-11.517-5.168-11.517-11.521V132.61c0-0.442,0.358-0.8,0.8-0.8h78.588
				c6.381,0,11.572-5.193,11.572-11.576V82.412c0-6.383-5.191-11.576-11.572-11.576H37.007c-0.442,0-0.8-0.358-0.8-0.8V11.521
				c0-6.353,5.167-11.521,11.517-11.521h82.386c0.442,0,0.8,0.358,0.8,0.8v38.943c0,5.474,4.446,9.927,9.911,9.927h40.981
				c0.442,0,0.8,0.358,0.8,0.8v132.674C182.602,189.498,177.435,194.666,171.084,194.666z M37.806,133.41v49.735
				c0,5.471,4.449,9.921,9.917,9.921h123.36c5.469,0,9.918-4.451,9.918-9.921V51.271h-40.182c-6.347,0-11.511-5.171-11.511-11.527
				V1.6H47.724c-5.468,0-9.917,4.451-9.917,9.921v57.716h77.789c7.263,0,13.172,5.91,13.172,13.175v37.822
				c0,7.265-5.909,13.175-13.172,13.175H37.806z"/>
			<path d="M181.802,51.271h-40.981c-6.347,0-11.511-5.171-11.511-11.527V0.801c0-0.321,0.191-0.61,0.486-0.736
				c0.293-0.127,0.636-0.064,0.868,0.159l51.692,49.67c0.235,0.226,0.31,0.573,0.188,0.875S182.129,51.271,181.802,51.271z
				 M130.909,2.679v37.065c0,5.474,4.446,9.927,9.911,9.927h38.994L130.909,2.679z"/>
			<path d="M37.007,133.41H25.236c-7.263,0-13.172-5.91-13.172-13.175V82.412c0-7.265,5.909-13.175,13.172-13.175h11.771
				c0.442,0,0.8,0.358,0.8,0.8s-0.358,0.8-0.8,0.8H25.236c-6.381,0-11.572,5.193-11.572,11.576v37.822
				c0,6.383,5.191,11.576,11.572,11.576h11.771c0.442,0,0.8,0.358,0.8,0.8S37.449,133.41,37.007,133.41z"/>
		</g>
		<g>
			<path d="M46.947,105.395h-4.671v7.122c0,1.018-0.241,1.791-0.719,2.321c-0.474,0.527-1.089,0.79-1.814,0.79
				c-0.77,0-1.394-0.257-1.853-0.783c-0.478-0.524-0.712-1.288-0.712-2.298V93.159c0-1.125,0.263-1.924,0.774-2.409
				c0.524-0.481,1.336-0.715,2.451-0.715h6.544c1.934,0,3.426,0.143,4.466,0.439c1.027,0.293,1.921,0.767,2.669,1.427
				c0.748,0.663,1.314,1.476,1.71,2.441c0.39,0.962,0.569,2.038,0.569,3.244c0,2.561-0.783,4.509-2.363,5.825
				C52.421,104.735,50.077,105.395,46.947,105.395z M45.715,93.862h-3.439v7.691h3.439c1.196,0,2.197-0.127,3.01-0.383
				c0.806-0.247,1.417-0.657,1.846-1.229c0.426-0.579,0.631-1.323,0.631-2.25c0-1.115-0.319-2.015-0.978-2.711
				C49.489,94.232,47.987,93.862,45.715,93.862z"/>
			<path d="M63.786,90.035h6.634c1.733,0,3.218,0.159,4.453,0.481c1.229,0.319,2.354,0.92,3.368,1.801
				c2.62,2.243,3.927,5.653,3.927,10.23c0,1.509-0.123,2.89-0.393,4.132c-0.257,1.248-0.666,2.376-1.219,3.378
				c-0.55,1.001-1.255,1.898-2.113,2.685c-0.673,0.605-1.411,1.086-2.211,1.456c-0.806,0.364-1.667,0.631-2.584,0.774
				c-0.93,0.149-1.967,0.218-3.121,0.218h-6.641c-0.926,0-1.619-0.133-2.096-0.419c-0.465-0.28-0.771-0.67-0.913-1.177
				c-0.146-0.514-0.208-1.174-0.208-1.986V93.159c0-1.099,0.244-1.898,0.738-2.386C61.89,90.276,62.684,90.035,63.786,90.035z
				 M65.759,94.063v17.079h3.856c0.848,0,1.515-0.02,1.996-0.065c0.478-0.045,0.972-0.162,1.499-0.345
				c0.517-0.179,0.959-0.435,1.336-0.767c1.7-1.443,2.555-3.933,2.555-7.45c0-2.484-0.364-4.343-1.125-5.585
				c-0.744-1.235-1.668-2.015-2.766-2.357c-1.102-0.341-2.422-0.51-3.982-0.51H65.759z"/>
			<path d="M101.682,93.966H91.641v6.436h8.397c0.774,0,1.355,0.172,1.739,0.52c0.383,0.351,0.582,0.819,0.582,1.398
				c0,0.585-0.198,1.053-0.589,1.391c-0.396,0.345-0.965,0.52-1.733,0.52h-8.397v8.286c0,1.057-0.24,1.837-0.712,2.344
				c-0.478,0.511-1.083,0.767-1.83,0.767c-0.754,0-1.362-0.257-1.843-0.777c-0.471-0.517-0.712-1.294-0.712-2.334V93.159
				c0-0.728,0.111-1.333,0.328-1.794c0.215-0.468,0.556-0.803,1.021-1.021c0.458-0.201,1.053-0.309,1.772-0.309h12.018
				c0.813,0,1.417,0.179,1.807,0.537c0.396,0.367,0.589,0.835,0.589,1.414c0,0.601-0.192,1.076-0.589,1.437
				C103.099,93.783,102.495,93.966,101.682,93.966z"/>
		</g>
	</g>
</g>
<g>
</g>
<g>
</g>
<g>
</g>
<g>
</g>
<g>
</g>
<g>
</g>
<g>
</g>
<g>
</g>
<g>
</g>
<g>
</g>
<g>
</g>
<g>
</g>
<g>
</g>
<g>
</g>
<g>
</g>
</svg>
