<?xml version="1.0" encoding="iso-8859-1"?>
<!-- Generator: Adobe Illustrator 19.1.0, SVG Export Plug-In . SVG Version: 6.00 Build 0)  -->
<svg version="1.1" id="Capa_1" xmlns="http://www.w3.org/2000/svg" xmlns:xlink="http://www.w3.org/1999/xlink" x="0px" y="0px"
	 viewBox="0 0 194.665 194.665" style="enable-background:new 0 0 194.665 194.665;" xml:space="preserve">
<g>
	<g>
		<g>
			<g>
				<path d="M99.39,194.665c-3.542,0-22.189-17.864-39.707-41.602C31.039,114.25,25.027,87.722,25.027,72.302
					C25.027,32.434,57.462,0,97.329,0c39.871,0,72.309,32.434,72.309,72.302C169.637,117.752,106.32,194.665,99.39,194.665z
					 M97.329,1.6c-38.985,0-70.702,31.717-70.702,70.703c0,15.179,5.958,41.347,34.342,79.809
					c18.176,24.629,36.056,40.952,38.421,40.954c2.548-0.1,19.678-18.472,36.413-43.344c12.039-17.893,32.235-51.742,32.235-77.419
					C168.038,33.317,136.318,1.6,97.329,1.6z M96.991,97.001c-15.91,0-28.854-12.608-28.854-28.105
					c0-15.5,12.943-28.109,28.854-28.109c15.914,0,28.86,12.609,28.86,28.109C125.851,84.393,112.905,97.001,96.991,97.001z
					 M96.991,42.386c-15.028,0-27.254,11.893-27.254,26.51c0,14.615,12.226,26.506,27.254,26.506
					c15.031,0,27.26-11.891,27.26-26.506C124.251,54.279,112.022,42.386,96.991,42.386z"/>
			</g>
		</g>
	</g>
</g>
<g>
</g>
<g>
</g>
<g>
</g>
<g>
</g>
<g>
</g>
<g>
</g>
<g>
</g>
<g>
</g>
<g>
</g>
<g>
</g>
<g>
</g>
<g>
</g>
<g>
</g>
<g>
</g>
<g>
</g>
</svg>
