<?xml version="1.0" encoding="utf-8"?>
<!-- Generator: Adobe Illustrator 16.0.0, SVG Export Plug-In . SVG Version: 6.00 Build 0)  -->
<!DOCTYPE svg PUBLIC "-//W3C//DTD SVG 1.1//EN" "http://www.w3.org/Graphics/SVG/1.1/DTD/svg11.dtd">
<svg version="1.1" id="Capa_1" xmlns="http://www.w3.org/2000/svg" xmlns:xlink="http://www.w3.org/1999/xlink" x="0px" y="0px"
	 width="210px" height="100px" viewBox="0 0 210 100" enable-background="new 0 0 210 100" xml:space="preserve">
<g>
	<path d="M130.876,71.115c5.919-7.397,9.618-16.83,9.618-26.818c-0.371-17.94-11.283-34.032-28.113-40.32
		c-17.016-6.289-36.807-0.74-48.089,13.502C53.195,31.351,51.9,51.326,61.148,66.492s27.374,23.119,44.758,19.789
		c8.509-1.664,16.092-5.918,21.825-11.651c7.769,7.769,15.536,15.536,23.304,23.304c2.035,2.035,5.364-1.109,3.33-3.328
		C146.412,86.652,138.645,78.884,130.876,71.115z M110.531,80.179c-14.982,5.364-32.183,0.555-42.355-11.652
		s-11.467-30.147-3.514-43.834C72.8,10.821,89.446,3.422,105.167,6.751c17.756,3.699,30.333,19.42,30.702,37.546
		C135.685,60.203,125.697,74.63,110.531,80.179z"/>
</g>
</svg>
