<?xml version="1.0" encoding="iso-8859-1"?>
<!-- Generator: Adobe Illustrator 16.0.0, SVG Export Plug-In . SVG Version: 6.00 Build 0)  -->
<!DOCTYPE svg PUBLIC "-//W3C//DTD SVG 1.1//EN" "http://www.w3.org/Graphics/SVG/1.1/DTD/svg11.dtd">
<svg version="1.1" id="Capa_1" xmlns="http://www.w3.org/2000/svg" xmlns:xlink="http://www.w3.org/1999/xlink" x="0px" y="0px"
	 width="533.333px" height="533.333px" viewBox="0 0 533.333 533.333" style="enable-background:new 0 0 533.333 533.333;"
	 xml:space="preserve">
<g>
	<path d="M0,160.609l21.663,28.409c0,0,44.672-35.213,59.563-17.605c14.889,17.605,71.737,230.186,90.713,269.399
		c16.562,34.393,62.249,79.854,112.351,47.387c50.071-32.469,216.583-174.629,246.389-342.509
		C560.46-22.137,330.304,13.02,305.924,159.236c60.931-36.582,93.456,14.863,62.274,73.11
		c-31.124,58.19-59.562,96.144-74.454,96.144c-14.865,0-26.297-38.943-43.327-107.005C232.814,151.12,232.922,24.371,159.732,38.74
		C90.713,52.289,0,160.609,0,160.609z"/>
</g>
<g>
</g>
<g>
</g>
<g>
</g>
<g>
</g>
<g>
</g>
<g>
</g>
<g>
</g>
<g>
</g>
<g>
</g>
<g>
</g>
<g>
</g>
<g>
</g>
<g>
</g>
<g>
</g>
<g>
</g>
</svg>
